<svg width="16" height="16" viewBox="0 0 16 16" fill="none" xmlns="http://www.w3.org/2000/svg">
<circle cx="8" cy="8" r="8" fill="#80B91E"/>
<path fill-rule="evenodd" clip-rule="evenodd" d="M4.19544 4.09309C4.19544 4.09309 4.06454 3.44969 4.30815 3.2487C4.58725 3.05719 5.5734 2.63623 6.01084 2.56322C6.44823 2.4902 6.74114 2.53041 7.13902 3.169C7.52735 3.84312 7.79443 4.82713 7.78218 5.0143C7.79599 5.24602 7.46233 5.49912 7.46233 5.49912L6.39736 6.35507C6.39736 6.35507 6.32371 6.48772 6.42486 6.81897C6.70148 7.76743 7.58188 9.29574 8.25354 10.0456C8.49872 10.2635 8.65018 10.2659 8.65018 10.2659L9.92228 9.76951C9.92228 9.76951 10.3433 9.61593 10.5011 9.7343C10.6944 9.86216 11.4207 10.5504 11.774 11.2152C12.1624 11.8893 12.0507 12.1637 11.7689 12.5068C11.4775 12.8855 10.5852 13.5215 10.2897 13.6325C9.98469 13.779 9.50375 13.3081 9.50375 13.3081C6.87813 11.3513 4.56388 7.38587 4.19544 4.09309Z" fill="#2D3D52"/>
</svg>
