<svg width="145" height="34" viewBox="0 0 145 34" fill="none" xmlns="http://www.w3.org/2000/svg">
<path d="M140.9 31L142 28.4L143 31H140.9ZM141.6 27.8L139.2 33.4H139.8L140.6 31.5H143.2L144 33.4H144.6L142.2 27.8H141.6ZM131.6 27.8V33.4H132.2V28.3H135.1V33.4H135.7V27.8H131.6ZM123.4 27.8V33.4H124V28.3H126.9V33.4H127.5V27.8H123.4ZM115.1 27.8L117.3 31.9L116.6 33.4H117.2L119.7 27.8H119.1L117.5 31.3L115.7 27.8H115.1ZM108.7 28.3H109.9C110.9 28.3 111.3 28.9 111.3 29.5C111.3 30.1 110.9 30.7 109.9 30.7H108.7V28.3ZM109.9 27.8H108.1V33.4H108.7V31.2H109.9C111.3 31.2 111.8 30.4 111.8 29.5C111.8 28.9 111.6 27.8 109.9 27.8ZM90.6 31.3L89.1 33.4H89.8L91.6 30.9H91.2C90.9 30.9 89.5 30.9 89.5 29.6C89.5 29 89.8 28.3 91.2 28.3H92.2V33.4H92.8V27.8H91.2C90.8 27.8 89 27.8 89 29.6C88.9 30.5 89.6 31.3 90.6 31.3ZM73 27.8H72.4V33.4H73V30.8H76V33.4H76.6V27.8H76V30.3H73V27.8ZM65.6 30.6H66.9C67.9 30.6 68.1 31.3 68.1 31.7C68.1 32.1 67.9 32.8 66.9 32.8H65.6V30.6ZM65.6 27.8H65V33.4H66.8C67.9 33.4 68.6 32.7 68.6 31.8C68.6 30.8 68 30.2 66.8 30.2H65.5V27.8H65.6ZM46 27.8H42.9V28.3H44.2V33.4H44.8V28.3H46V27.8ZM35.4 27.8H34.8V33.4H35.4L38.7 28.6V33.4H39.3V27.8H38.7L35.4 32.6V27.8ZM25.5 30.6C25.5 29.2 26.5 28.2 27.9 28.2C29.2 28.2 30.3 29.2 30.3 30.6C30.3 32 29.3 33 27.9 33C26.6 33 25.5 32 25.5 30.6ZM25 30.6C25 32.3 26.3 33.5 28 33.5C29.7 33.5 31 32.3 31 30.6C31 28.9 29.7 27.7 28 27.7C26.3 27.7 25 28.9 25 30.6ZM18.3 28.3H19.5C20.5 28.3 20.9 28.9 20.9 29.5C20.9 30.1 20.5 30.7 19.5 30.7H18.3V28.3ZM19.5 27.8H17.7V33.4H18.3V31.2H19.5C20.9 31.2 21.4 30.4 21.4 29.5C21.4 28.9 21.1 27.8 19.5 27.8ZM11 27.8V28.3H12.3V33.4H12.9V28.3H14.2V27.8H11ZM2 30.6C2 32.3 3.3 33.5 5 33.5C6.1 33.5 7 32.9 7.6 31.9H6.9C6.4 32.7 5.7 33 5 33C3.7 33 2.6 32 2.6 30.6C2.6 29.3 3.5 28.2 5 28.2C6.2 28.2 6.8 29 6.9 29.2H7.6C7.1 28.2 6.2 27.7 5 27.7C3.3 27.7 2 28.9 2 30.6ZM4.5 10.6C4.5 6.9 7.7 3.8 11.5 3.8C14.1 3.8 16.3 5.1 17.6 7.1L21.2 4.8C19.1 1.9 15.6 0 11.5 0C5.2 0 0 4.7 0 10.6C0 16.4 5.1 21.3 11.5 21.3C15.9 21.3 19.7 18.9 21.7 15.6C20.9 15.1 18.8 13.6 18.1 13.1C17.1 15.6 14.5 17.4 11.6 17.4C7.6 17.3 4.5 14.3 4.5 10.6ZM42.8 20.7H47.1V0.7H43.8L35.8 10.9L27.8 0.7H24.5V20.7H28.8V8.4L35.8 17.6L42.8 8.5V20.7ZM52.7 27.8H49.6V33.4H52.7V32.9H50.2V30.8H52.6V30.3H50.2V28.3H52.7V27.8ZM55.6 18.7C55.6 17.4 54.5 16.4 53.1 16.4C51.7 16.4 50.6 17.4 50.6 18.7C50.6 20 51.7 21 53.1 21C54.5 21 55.6 19.9 55.6 18.7ZM58.6 27.8L56.3 33.4H56.9L58.9 28.5L60.9 33.4H61.5L59.2 27.8H58.6ZM62.7 10.6C62.7 6.9 65.9 3.8 69.7 3.8C72.3 3.8 74.5 5.1 75.8 7.1L79.4 4.8C77.4 1.9 73.8 0 69.8 0C63.4 0 58.3 4.7 58.3 10.6C58.3 16.4 63.4 21.3 69.8 21.3C74.2 21.3 78 18.9 80 15.6C79.2 15.1 77.1 13.6 76.4 13.1C75.4 15.6 72.8 17.4 69.9 17.4C65.9 17.3 62.7 14.3 62.7 10.6ZM81.8 31L82.9 28.4L84 31H81.8ZM82.6 27.8L80.2 33.4H80.8L81.6 31.5H84.2L85 33.4H85.6L83.2 27.8H82.6ZM95.8 20.7H100.1V0.7H97.1L86.1 13.6V0.6H81.8V20.6H84.7C88.1 16.6 95.8 7.7 95.8 7.7V20.7ZM104.5 27.8H101.6V33.4H102.2V28.3H104.5V27.8ZM115.2 4.5H123.6V0.6H102.6V4.4H110.9V20.6H115.2V4.5ZM144.4 20.7V0.7H141.4L130.4 13.6V0.6H126V20.6H128.9C132.3 16.6 140 7.7 140 7.7V20.7H144.4Z" fill="currentColor"/>
</svg>
