<svg xmlns="http://www.w3.org/2000/svg" width="331" height="331" viewBox="0 0 50 50">
    <path fill="white" style="text-indent:0;text-align:start;line-height:normal;text-transform:none;block-progression:tb;-inkscape-font-specification:Bitstream Vera Sans" d="M 24.78125 -0.03125 A 2.0002 2.0002 0 0 0 23 2 L 23 3.125 C 12.458991 4.0632234 4.0465376 12.46239 3.09375 23 L 2 23 A 2.0002 2.0002 0 0 0 1.8125 23 A 2.0021961 2.0021961 0 1 0 2 27 L 3.09375 27 C 4.0465355 37.536878 12.458975 45.935924 23 46.875 L 23 48 A 2.0002 2.0002 0 1 0 27 48 L 27 46.875 C 35.752014 46.069934 43.073894 40.147031 45.8125 32.09375 A 2.0160489 2.0160489 0 1 0 42 30.78125 C 39.800738 37.248507 34.018923 42.054769 27 42.84375 L 27 41 A 2.0002 2.0002 0 0 0 24.96875 38.96875 A 2.0002 2.0002 0 0 0 23 41 L 23 42.84375 C 14.63688 41.938526 8.0437059 35.35861 7.125 27 L 9 27 A 2.0002 2.0002 0 1 0 9 23 L 7.125 23 C 8.0437034 14.640591 14.636865 8.060778 23 7.15625 L 23 9 A 2.0002 2.0002 0 1 0 27 9 L 27 7.15625 C 34.0282 7.9441524 39.837002 12.744363 42.03125 19.21875 A 2.0002 2.0002 0 1 0 45.8125 17.9375 C 43.079938 9.8747564 35.757885 3.9327085 27 3.125 L 27 2 A 2.0002 2.0002 0 0 0 24.96875 -0.03125 A 2.0002 2.0002 0 0 0 24.78125 -0.03125 z M 32 17 L 36.15625 25 L 32 33 L 50 25 L 32 17 z" overflow="visible" enable-background="accumulate" font-family="Bitstream Vera Sans"/>
</svg>