<svg width="398" height="398" viewBox="0 0 398 398" fill="none" xmlns="http://www.w3.org/2000/svg">
<g clip-path="url(#clip0)">
<path d="M202.448 0V7.744H202.032L197.84 0H194.752V11.424H196.928V3.68H197.344L201.536 11.424H204.624V0H202.448Z" fill="white"/>
<path d="M195.218 394.41C195.474 396.474 197.202 397.754 199.698 397.754C202.466 397.754 204.002 396.202 204.002 394.33C204.002 392.602 202.978 391.546 201.074 391.21L198.898 390.826C197.938 390.65 197.346 390.298 197.346 389.402C197.346 388.49 198.178 387.962 199.442 387.962C200.674 387.962 201.778 388.346 201.986 389.61L204.418 389.61C204.178 387.354 202.434 385.914 199.538 385.914C196.418 385.914 194.946 387.61 194.946 389.514C194.946 391.578 196.258 392.522 198.05 392.858L200.178 393.242C200.962 393.386 201.602 393.658 201.602 394.41C201.602 395.306 200.738 395.706 199.73 395.706C198.53 395.706 197.858 395.322 197.65 394.41L195.218 394.41Z" fill="white"/>
<path d="M3.456 196.488L8.592 197.912L8.592 198.328L-1.00012e-07 199.288L0 201.576L11.424 200.216L11.424 196.728L5.68 195.208L5.68 194.792L11.424 193.288L11.424 189.8L-5.74193e-07 188.44L-4.7558e-07 190.696L8.592 191.672L8.592 192.072L3.456 193.512L3.456 196.488Z" fill="white"/>
<path d="M388.251 193.834L390.939 193.834L390.939 198.554L393.019 198.554L393.019 193.834L395.419 193.834L395.419 199.898L397.547 199.898L397.547 191.45L386.123 191.45L386.123 200.074L388.251 200.074L388.251 193.834Z" fill="white"/>
<path d="M185.424 34.2732L200.273 19.424L215.122 34.2732L200.273 33.924L185.424 34.2732Z" fill="white"/>
<path d="M215.122 363.273L200.273 378.122L185.424 363.273L200.273 363.622L215.122 363.273Z" fill="white"/>
<path d="M34.2734 211.123L19.4242 196.273L34.2734 181.424L33.9242 196.273L34.2734 211.123Z" fill="white"/>
<path d="M363.273 181.424L378.123 196.273L363.273 211.122L363.623 196.273L363.273 181.424Z" fill="white"/>
<rect x="33.9238" y="33.9238" width="330" height="330" rx="165" stroke="white"/>
</g>
<defs>
<clipPath id="clip0">
<rect width="397.546" height="397.754" fill="white"/>
</clipPath>
</defs>
</svg>
