<svg width="91" height="91" viewBox="0 0 91 91" fill="none" xmlns="http://www.w3.org/2000/svg">
<rect x="0.5" y="0.5" width="90" height="90" rx="45" stroke="white"/>
<path d="M74.5477 32.4402C72.3217 32.4402 70.8926 33.9158 70.8926 36.0953C70.8926 38.2749 72.3217 39.7505 74.5477 39.7505C76.8013 39.7505 78.2029 38.2749 78.2029 36.0953C78.2029 33.9158 76.8013 32.4402 74.5477 32.4402ZM74.5477 38.1801C73.3522 38.1801 72.8163 37.219 72.8163 36.0953C72.8163 34.9853 73.3522 34.0241 74.5477 34.0241C75.7569 34.0241 76.2791 34.9853 76.2791 36.0953C76.2791 37.219 75.7569 38.1801 74.5477 38.1801Z" fill="white"/>
<path fill-rule="evenodd" clip-rule="evenodd" d="M50.107 64.6983C49.8361 64.385 49.8704 63.9114 50.1837 63.6404L54.0693 60.1695C54.3826 59.8986 54.8563 59.9329 55.1272 60.2462C55.3982 60.5595 55.3638 61.0332 55.0505 61.3041L52.5111 63.6109C55.3956 63.8925 57.8992 64.3247 59.7855 64.8667C60.9126 65.1905 61.8628 65.5656 62.5478 65.9978C63.1917 66.404 63.8193 67.0026 63.8193 67.8317C63.8193 68.3593 63.5582 68.7965 63.2274 69.1318C62.899 69.4648 62.4534 69.75 61.9458 69.9989C60.9276 70.4983 59.5027 70.9273 57.8032 71.2798C54.3917 71.9875 49.7133 72.4195 44.5693 72.4195C39.4254 72.4195 34.747 71.9875 31.3355 71.2798C29.636 70.9273 28.2111 70.4983 27.1929 69.9989C26.6853 69.75 26.2397 69.4648 25.9112 69.1318C25.5804 68.7965 25.3193 68.3593 25.3193 67.8317C25.3193 66.9827 25.9764 66.3749 26.6447 65.9643C27.3588 65.5255 28.3507 65.1447 29.5287 64.817C31.8961 64.1585 35.1896 63.6675 38.9706 63.4211L39.0681 64.918C35.3434 65.1606 32.1619 65.6415 29.9307 66.2622C28.8094 66.5741 27.9711 66.9098 27.4299 67.2423C26.8428 67.6031 26.8193 67.8215 26.8193 67.8317C26.8193 67.8355 26.8187 67.9158 26.9791 68.0785C27.1435 68.2451 27.4249 68.442 27.8534 68.6522C28.7075 69.0711 29.9919 69.4692 31.6402 69.8111C34.9245 70.4924 39.496 70.9195 44.5693 70.9195C49.6427 70.9195 54.2142 70.4924 57.4985 69.8111C59.1468 69.4692 60.4311 69.0711 61.2852 68.6522C61.7138 68.442 61.9951 68.2451 62.1595 68.0785C62.32 67.9158 62.3194 67.8356 62.3193 67.8318C62.3193 67.823 62.2998 67.6149 61.7474 67.2663C61.236 66.9437 60.4408 66.6156 59.3713 66.3083C57.6157 65.8039 55.2375 65.3878 52.4478 65.1119L54.7039 67.671C54.9749 67.9843 54.9405 68.4579 54.6272 68.7289C54.3139 68.9998 53.8403 68.9655 53.5693 68.6522L50.107 64.6983Z" fill="white"/>
<path d="M19.617 52H32.3098V48.4426H28.2117V32.0785H23.4021L19.5885 34.6967V38.7664L23.4021 36.1766H24.1136V48.4426H19.617V52ZM46.9729 41.0716C47.9405 40.5593 49.2781 39.2787 49.2781 37.0304C49.2781 34.0422 46.6598 31.68 42.2486 31.68C37.8374 31.68 35.2191 34.0422 35.2191 37.0304C35.2191 39.3356 36.4998 40.5309 37.5244 41.0716V41.8116C36.2437 42.3523 34.5646 43.7753 34.5646 46.3935C34.5646 49.6094 37.2398 52.37 42.2486 52.37C47.2574 52.37 49.9326 49.6094 49.9326 46.3935C49.9326 43.7753 48.2535 42.3523 46.9729 41.8116V41.0716ZM42.2486 34.839C44.1554 34.839 45.3222 35.9774 45.3222 37.4573C45.3222 39.0225 44.1554 40.104 42.2486 40.104C40.3987 40.104 39.175 39.0225 39.175 37.4573C39.175 35.9774 40.3987 34.839 42.2486 34.839ZM42.2486 48.9549C39.8296 48.9549 38.6343 47.6173 38.6343 45.9951C38.6343 44.4014 39.8296 43.0353 42.2486 43.0353C44.6392 43.0353 45.8629 44.4014 45.8629 45.9951C45.8629 47.6173 44.6392 48.9549 42.2486 48.9549ZM60.4294 31.68C56.0183 31.68 52.6316 34.7821 52.6316 42.0392C52.6316 49.2679 56.0183 52.37 60.4294 52.37C64.8406 52.37 68.2273 49.2679 68.2273 42.0392C68.2273 34.7821 64.8406 31.68 60.4294 31.68ZM60.4294 48.7272C57.4412 48.7272 56.7582 45.2267 56.7582 42.0392C56.7582 38.8233 57.4412 35.3228 60.4294 35.3228C63.4461 35.3228 64.1292 38.8233 64.1292 42.0392C64.1292 45.2267 63.4461 48.7272 60.4294 48.7272Z" fill="white"/>
</svg>
